<mxfile host="app.diagrams.net" modified="2020-10-08T05:56:12.090Z" agent="5.0 (Windows NT 10.0; Win64; x64) AppleWebKit/537.36 (KHTML, like Gecko) Chrome/85.0.4183.121 Safari/537.36" etag="jbJH_l1ARcKcfQnniJ9b" version="13.7.8" type="github">
  <diagram id="gz8LWch606pM161svEnc" name="Page-1">
    <mxGraphModel dx="868" dy="520" grid="1" gridSize="10" guides="1" tooltips="1" connect="1" arrows="1" fold="1" page="1" pageScale="1" pageWidth="850" pageHeight="1100" math="0" shadow="0">
      <root>
        <mxCell id="0" />
        <mxCell id="1" parent="0" />
        <mxCell id="QKqAWIQm0binz4gcXkLU-4" style="edgeStyle=orthogonalEdgeStyle;rounded=0;orthogonalLoop=1;jettySize=auto;html=1;exitX=1;exitY=0.5;exitDx=0;exitDy=0;" edge="1" parent="1" source="QKqAWIQm0binz4gcXkLU-1" target="QKqAWIQm0binz4gcXkLU-3">
          <mxGeometry relative="1" as="geometry" />
        </mxCell>
        <mxCell id="QKqAWIQm0binz4gcXkLU-1" value="MAHASISWA" style="rounded=0;whiteSpace=wrap;html=1;" vertex="1" parent="1">
          <mxGeometry x="60" y="150" width="120" height="60" as="geometry" />
        </mxCell>
        <mxCell id="QKqAWIQm0binz4gcXkLU-5" style="edgeStyle=orthogonalEdgeStyle;rounded=0;orthogonalLoop=1;jettySize=auto;html=1;exitX=0;exitY=0.5;exitDx=0;exitDy=0;entryX=1;entryY=0.5;entryDx=0;entryDy=0;" edge="1" parent="1" source="QKqAWIQm0binz4gcXkLU-2" target="QKqAWIQm0binz4gcXkLU-3">
          <mxGeometry relative="1" as="geometry" />
        </mxCell>
        <mxCell id="QKqAWIQm0binz4gcXkLU-2" value="DOSEN" style="rounded=0;whiteSpace=wrap;html=1;" vertex="1" parent="1">
          <mxGeometry x="610" y="345" width="120" height="60" as="geometry" />
        </mxCell>
        <mxCell id="QKqAWIQm0binz4gcXkLU-8" style="edgeStyle=orthogonalEdgeStyle;rounded=0;orthogonalLoop=1;jettySize=auto;html=1;exitX=1;exitY=1;exitDx=0;exitDy=0;entryX=0.25;entryY=1;entryDx=0;entryDy=0;" edge="1" parent="1" source="QKqAWIQm0binz4gcXkLU-3" target="QKqAWIQm0binz4gcXkLU-2">
          <mxGeometry relative="1" as="geometry" />
        </mxCell>
        <mxCell id="QKqAWIQm0binz4gcXkLU-10" style="edgeStyle=orthogonalEdgeStyle;rounded=0;orthogonalLoop=1;jettySize=auto;html=1;exitX=0.5;exitY=1;exitDx=0;exitDy=0;entryX=0.75;entryY=1;entryDx=0;entryDy=0;" edge="1" parent="1" source="QKqAWIQm0binz4gcXkLU-3" target="QKqAWIQm0binz4gcXkLU-2">
          <mxGeometry relative="1" as="geometry" />
        </mxCell>
        <mxCell id="QKqAWIQm0binz4gcXkLU-12" style="edgeStyle=orthogonalEdgeStyle;rounded=0;orthogonalLoop=1;jettySize=auto;html=1;exitX=0;exitY=0.5;exitDx=0;exitDy=0;entryX=0.75;entryY=1;entryDx=0;entryDy=0;" edge="1" parent="1" source="QKqAWIQm0binz4gcXkLU-3" target="QKqAWIQm0binz4gcXkLU-1">
          <mxGeometry relative="1" as="geometry" />
        </mxCell>
        <mxCell id="QKqAWIQm0binz4gcXkLU-13" style="edgeStyle=orthogonalEdgeStyle;rounded=0;orthogonalLoop=1;jettySize=auto;html=1;exitX=0;exitY=1;exitDx=0;exitDy=0;entryX=0.25;entryY=1;entryDx=0;entryDy=0;" edge="1" parent="1" source="QKqAWIQm0binz4gcXkLU-3" target="QKqAWIQm0binz4gcXkLU-1">
          <mxGeometry relative="1" as="geometry" />
        </mxCell>
        <mxCell id="QKqAWIQm0binz4gcXkLU-3" value="SISTEM INFORMASI KELAS" style="ellipse;whiteSpace=wrap;html=1;aspect=fixed;" vertex="1" parent="1">
          <mxGeometry x="320" y="300" width="150" height="150" as="geometry" />
        </mxCell>
        <mxCell id="QKqAWIQm0binz4gcXkLU-6" value="DATA MAHASISWA" style="text;html=1;align=center;verticalAlign=middle;resizable=0;points=[];autosize=1;" vertex="1" parent="1">
          <mxGeometry x="230" y="160" width="120" height="20" as="geometry" />
        </mxCell>
        <mxCell id="QKqAWIQm0binz4gcXkLU-7" value="NILAI&lt;br&gt;ABSEN" style="text;html=1;align=center;verticalAlign=middle;resizable=0;points=[];autosize=1;" vertex="1" parent="1">
          <mxGeometry x="510" y="345" width="60" height="30" as="geometry" />
        </mxCell>
        <mxCell id="QKqAWIQm0binz4gcXkLU-9" value="LAPORAN NILAI" style="text;html=1;align=center;verticalAlign=middle;resizable=0;points=[];autosize=1;" vertex="1" parent="1">
          <mxGeometry x="475" y="410" width="110" height="20" as="geometry" />
        </mxCell>
        <mxCell id="QKqAWIQm0binz4gcXkLU-11" value="LAPORAN ABSEN" style="text;html=1;align=center;verticalAlign=middle;resizable=0;points=[];autosize=1;" vertex="1" parent="1">
          <mxGeometry x="480" y="450" width="120" height="20" as="geometry" />
        </mxCell>
        <mxCell id="QKqAWIQm0binz4gcXkLU-14" value="NILAI" style="text;html=1;align=center;verticalAlign=middle;resizable=0;points=[];autosize=1;" vertex="1" parent="1">
          <mxGeometry x="215" y="350" width="50" height="20" as="geometry" />
        </mxCell>
        <mxCell id="QKqAWIQm0binz4gcXkLU-15" value="ABSEN" style="text;html=1;align=center;verticalAlign=middle;resizable=0;points=[];autosize=1;" vertex="1" parent="1">
          <mxGeometry x="190" y="410" width="60" height="20" as="geometry" />
        </mxCell>
        <mxCell id="QKqAWIQm0binz4gcXkLU-20" style="edgeStyle=orthogonalEdgeStyle;rounded=0;orthogonalLoop=1;jettySize=auto;html=1;exitX=1;exitY=0.75;exitDx=0;exitDy=0;entryX=0.5;entryY=0;entryDx=0;entryDy=0;" edge="1" parent="1" source="QKqAWIQm0binz4gcXkLU-16" target="QKqAWIQm0binz4gcXkLU-17">
          <mxGeometry relative="1" as="geometry" />
        </mxCell>
        <mxCell id="QKqAWIQm0binz4gcXkLU-21" style="edgeStyle=orthogonalEdgeStyle;rounded=0;orthogonalLoop=1;jettySize=auto;html=1;exitX=1;exitY=0.25;exitDx=0;exitDy=0;entryX=0.5;entryY=0;entryDx=0;entryDy=0;" edge="1" parent="1" source="QKqAWIQm0binz4gcXkLU-16" target="QKqAWIQm0binz4gcXkLU-18">
          <mxGeometry relative="1" as="geometry" />
        </mxCell>
        <mxCell id="QKqAWIQm0binz4gcXkLU-16" value="MAHASISWA" style="rounded=0;whiteSpace=wrap;html=1;" vertex="1" parent="1">
          <mxGeometry x="50" y="570" width="120" height="60" as="geometry" />
        </mxCell>
        <mxCell id="QKqAWIQm0binz4gcXkLU-24" style="edgeStyle=orthogonalEdgeStyle;rounded=0;orthogonalLoop=1;jettySize=auto;html=1;entryX=0.5;entryY=1;entryDx=0;entryDy=0;" edge="1" parent="1" source="QKqAWIQm0binz4gcXkLU-17" target="QKqAWIQm0binz4gcXkLU-16">
          <mxGeometry relative="1" as="geometry" />
        </mxCell>
        <mxCell id="QKqAWIQm0binz4gcXkLU-30" style="edgeStyle=orthogonalEdgeStyle;rounded=0;orthogonalLoop=1;jettySize=auto;html=1;exitX=1;exitY=1;exitDx=0;exitDy=0;entryX=1;entryY=0.5;entryDx=0;entryDy=0;" edge="1" parent="1" source="QKqAWIQm0binz4gcXkLU-17" target="QKqAWIQm0binz4gcXkLU-19">
          <mxGeometry relative="1" as="geometry">
            <Array as="points">
              <mxPoint x="410" y="820" />
            </Array>
          </mxGeometry>
        </mxCell>
        <mxCell id="QKqAWIQm0binz4gcXkLU-40" style="edgeStyle=orthogonalEdgeStyle;rounded=0;orthogonalLoop=1;jettySize=auto;html=1;exitX=0;exitY=1;exitDx=0;exitDy=0;entryX=1;entryY=0.5;entryDx=0;entryDy=0;" edge="1" parent="1" source="QKqAWIQm0binz4gcXkLU-17" target="QKqAWIQm0binz4gcXkLU-37">
          <mxGeometry relative="1" as="geometry" />
        </mxCell>
        <mxCell id="QKqAWIQm0binz4gcXkLU-17" value="1&lt;br&gt;&lt;br&gt;ABSEN" style="ellipse;whiteSpace=wrap;html=1;aspect=fixed;" vertex="1" parent="1">
          <mxGeometry x="325" y="640" width="100" height="100" as="geometry" />
        </mxCell>
        <mxCell id="QKqAWIQm0binz4gcXkLU-26" style="edgeStyle=orthogonalEdgeStyle;rounded=0;orthogonalLoop=1;jettySize=auto;html=1;exitX=1;exitY=0.5;exitDx=0;exitDy=0;entryX=0.5;entryY=0;entryDx=0;entryDy=0;" edge="1" parent="1" source="QKqAWIQm0binz4gcXkLU-18" target="QKqAWIQm0binz4gcXkLU-16">
          <mxGeometry relative="1" as="geometry" />
        </mxCell>
        <mxCell id="QKqAWIQm0binz4gcXkLU-32" style="edgeStyle=orthogonalEdgeStyle;rounded=0;orthogonalLoop=1;jettySize=auto;html=1;exitX=0;exitY=1;exitDx=0;exitDy=0;entryX=1;entryY=0.75;entryDx=0;entryDy=0;" edge="1" parent="1" source="QKqAWIQm0binz4gcXkLU-18" target="QKqAWIQm0binz4gcXkLU-19">
          <mxGeometry relative="1" as="geometry">
            <Array as="points">
              <mxPoint x="555" y="835" />
            </Array>
          </mxGeometry>
        </mxCell>
        <mxCell id="QKqAWIQm0binz4gcXkLU-41" style="edgeStyle=orthogonalEdgeStyle;rounded=0;orthogonalLoop=1;jettySize=auto;html=1;exitX=1;exitY=1;exitDx=0;exitDy=0;entryX=0.5;entryY=0;entryDx=0;entryDy=0;" edge="1" parent="1" source="QKqAWIQm0binz4gcXkLU-18" target="QKqAWIQm0binz4gcXkLU-36">
          <mxGeometry relative="1" as="geometry" />
        </mxCell>
        <mxCell id="QKqAWIQm0binz4gcXkLU-18" value="2&lt;br&gt;&lt;br&gt;NILAI" style="ellipse;whiteSpace=wrap;html=1;aspect=fixed;" vertex="1" parent="1">
          <mxGeometry x="540" y="640" width="100" height="100" as="geometry" />
        </mxCell>
        <mxCell id="QKqAWIQm0binz4gcXkLU-28" style="edgeStyle=orthogonalEdgeStyle;rounded=0;orthogonalLoop=1;jettySize=auto;html=1;exitX=0.5;exitY=0;exitDx=0;exitDy=0;entryX=0.5;entryY=1;entryDx=0;entryDy=0;" edge="1" parent="1" source="QKqAWIQm0binz4gcXkLU-19" target="QKqAWIQm0binz4gcXkLU-17">
          <mxGeometry relative="1" as="geometry" />
        </mxCell>
        <mxCell id="QKqAWIQm0binz4gcXkLU-34" style="edgeStyle=orthogonalEdgeStyle;rounded=0;orthogonalLoop=1;jettySize=auto;html=1;exitX=0.5;exitY=1;exitDx=0;exitDy=0;entryX=0.5;entryY=1;entryDx=0;entryDy=0;" edge="1" parent="1" source="QKqAWIQm0binz4gcXkLU-19" target="QKqAWIQm0binz4gcXkLU-18">
          <mxGeometry relative="1" as="geometry">
            <Array as="points">
              <mxPoint x="110" y="910" />
              <mxPoint x="590" y="910" />
            </Array>
          </mxGeometry>
        </mxCell>
        <mxCell id="QKqAWIQm0binz4gcXkLU-19" value="DOSEN" style="rounded=0;whiteSpace=wrap;html=1;" vertex="1" parent="1">
          <mxGeometry x="50" y="790" width="120" height="60" as="geometry" />
        </mxCell>
        <mxCell id="QKqAWIQm0binz4gcXkLU-22" value="DATA MAHASISWA" style="text;html=1;align=center;verticalAlign=middle;resizable=0;points=[];autosize=1;" vertex="1" parent="1">
          <mxGeometry x="190" y="590" width="120" height="20" as="geometry" />
        </mxCell>
        <mxCell id="QKqAWIQm0binz4gcXkLU-23" value="DATA MAHASISWA" style="text;html=1;align=center;verticalAlign=middle;resizable=0;points=[];autosize=1;" vertex="1" parent="1">
          <mxGeometry x="270" y="560" width="120" height="20" as="geometry" />
        </mxCell>
        <mxCell id="QKqAWIQm0binz4gcXkLU-25" value="ABSEN" style="text;html=1;align=center;verticalAlign=middle;resizable=0;points=[];autosize=1;" vertex="1" parent="1">
          <mxGeometry x="180" y="670" width="60" height="20" as="geometry" />
        </mxCell>
        <mxCell id="QKqAWIQm0binz4gcXkLU-27" value="NILAI" style="text;html=1;align=center;verticalAlign=middle;resizable=0;points=[];autosize=1;" vertex="1" parent="1">
          <mxGeometry x="555" y="530" width="50" height="20" as="geometry" />
        </mxCell>
        <mxCell id="QKqAWIQm0binz4gcXkLU-29" value="ABSEN" style="text;html=1;align=center;verticalAlign=middle;resizable=0;points=[];autosize=1;" vertex="1" parent="1">
          <mxGeometry x="180" y="740" width="60" height="20" as="geometry" />
        </mxCell>
        <mxCell id="QKqAWIQm0binz4gcXkLU-31" value="LAPORAN ABSEN" style="text;html=1;align=center;verticalAlign=middle;resizable=0;points=[];autosize=1;" vertex="1" parent="1">
          <mxGeometry x="230" y="800" width="120" height="20" as="geometry" />
        </mxCell>
        <mxCell id="QKqAWIQm0binz4gcXkLU-33" value="LAPORAN NILAI" style="text;html=1;align=center;verticalAlign=middle;resizable=0;points=[];autosize=1;" vertex="1" parent="1">
          <mxGeometry x="230" y="840" width="110" height="20" as="geometry" />
        </mxCell>
        <mxCell id="QKqAWIQm0binz4gcXkLU-35" value="NILAI" style="text;html=1;align=center;verticalAlign=middle;resizable=0;points=[];autosize=1;" vertex="1" parent="1">
          <mxGeometry x="275" y="910" width="50" height="20" as="geometry" />
        </mxCell>
        <mxCell id="QKqAWIQm0binz4gcXkLU-36" value="NILAI" style="shape=partialRectangle;whiteSpace=wrap;html=1;left=0;right=0;fillColor=none;" vertex="1" parent="1">
          <mxGeometry x="660" y="750" width="90" height="30" as="geometry" />
        </mxCell>
        <mxCell id="QKqAWIQm0binz4gcXkLU-37" value="ABSEN" style="shape=partialRectangle;whiteSpace=wrap;html=1;left=0;right=0;fillColor=none;" vertex="1" parent="1">
          <mxGeometry x="195" y="700" width="90" height="30" as="geometry" />
        </mxCell>
        <mxCell id="QKqAWIQm0binz4gcXkLU-47" style="edgeStyle=orthogonalEdgeStyle;rounded=0;orthogonalLoop=1;jettySize=auto;html=1;exitX=1;exitY=0.5;exitDx=0;exitDy=0;entryX=0;entryY=0.5;entryDx=0;entryDy=0;" edge="1" parent="1" source="QKqAWIQm0binz4gcXkLU-42" target="QKqAWIQm0binz4gcXkLU-44">
          <mxGeometry relative="1" as="geometry" />
        </mxCell>
        <mxCell id="QKqAWIQm0binz4gcXkLU-42" value="MAHASISWA" style="rounded=0;whiteSpace=wrap;html=1;" vertex="1" parent="1">
          <mxGeometry x="50" y="1240" width="120" height="60" as="geometry" />
        </mxCell>
        <mxCell id="QKqAWIQm0binz4gcXkLU-46" style="edgeStyle=orthogonalEdgeStyle;rounded=0;orthogonalLoop=1;jettySize=auto;html=1;exitX=1;exitY=0.5;exitDx=0;exitDy=0;entryX=0.5;entryY=0;entryDx=0;entryDy=0;" edge="1" parent="1" source="QKqAWIQm0binz4gcXkLU-43" target="QKqAWIQm0binz4gcXkLU-44">
          <mxGeometry relative="1" as="geometry" />
        </mxCell>
        <mxCell id="QKqAWIQm0binz4gcXkLU-43" value="DOSEN" style="rounded=0;whiteSpace=wrap;html=1;" vertex="1" parent="1">
          <mxGeometry x="50" y="1140" width="120" height="60" as="geometry" />
        </mxCell>
        <mxCell id="QKqAWIQm0binz4gcXkLU-57" style="edgeStyle=orthogonalEdgeStyle;rounded=0;orthogonalLoop=1;jettySize=auto;html=1;exitX=1;exitY=0.5;exitDx=0;exitDy=0;entryX=0.5;entryY=0;entryDx=0;entryDy=0;" edge="1" parent="1" source="QKqAWIQm0binz4gcXkLU-44" target="QKqAWIQm0binz4gcXkLU-56">
          <mxGeometry relative="1" as="geometry" />
        </mxCell>
        <mxCell id="QKqAWIQm0binz4gcXkLU-44" value="1.1&lt;br&gt;&lt;br&gt;INPUT ABSEN" style="ellipse;whiteSpace=wrap;html=1;aspect=fixed;" vertex="1" parent="1">
          <mxGeometry x="380" y="1220" width="100" height="100" as="geometry" />
        </mxCell>
        <mxCell id="QKqAWIQm0binz4gcXkLU-52" style="edgeStyle=orthogonalEdgeStyle;rounded=0;orthogonalLoop=1;jettySize=auto;html=1;exitX=0;exitY=0.5;exitDx=0;exitDy=0;entryX=0.75;entryY=1;entryDx=0;entryDy=0;" edge="1" parent="1" source="QKqAWIQm0binz4gcXkLU-45" target="QKqAWIQm0binz4gcXkLU-42">
          <mxGeometry relative="1" as="geometry" />
        </mxCell>
        <mxCell id="QKqAWIQm0binz4gcXkLU-54" style="edgeStyle=orthogonalEdgeStyle;rounded=0;orthogonalLoop=1;jettySize=auto;html=1;exitX=0;exitY=1;exitDx=0;exitDy=0;entryX=0;entryY=0.5;entryDx=0;entryDy=0;" edge="1" parent="1" source="QKqAWIQm0binz4gcXkLU-45" target="QKqAWIQm0binz4gcXkLU-43">
          <mxGeometry relative="1" as="geometry" />
        </mxCell>
        <mxCell id="QKqAWIQm0binz4gcXkLU-45" value="1.1&lt;br&gt;&lt;br&gt;LIHAT ABSEN" style="ellipse;whiteSpace=wrap;html=1;aspect=fixed;" vertex="1" parent="1">
          <mxGeometry x="380" y="1390" width="100" height="100" as="geometry" />
        </mxCell>
        <mxCell id="QKqAWIQm0binz4gcXkLU-48" value="ABSEN" style="text;html=1;align=center;verticalAlign=middle;resizable=0;points=[];autosize=1;" vertex="1" parent="1">
          <mxGeometry x="250" y="1150" width="60" height="20" as="geometry" />
        </mxCell>
        <mxCell id="QKqAWIQm0binz4gcXkLU-49" value="DATA MAHASISWA" style="text;html=1;align=center;verticalAlign=middle;resizable=0;points=[];autosize=1;" vertex="1" parent="1">
          <mxGeometry x="215" y="1250" width="120" height="20" as="geometry" />
        </mxCell>
        <mxCell id="QKqAWIQm0binz4gcXkLU-53" value="ABSEN" style="text;html=1;align=center;verticalAlign=middle;resizable=0;points=[];autosize=1;" vertex="1" parent="1">
          <mxGeometry x="245" y="1420" width="60" height="20" as="geometry" />
        </mxCell>
        <mxCell id="QKqAWIQm0binz4gcXkLU-55" value="LAPORAN ABSEN" style="text;html=1;align=center;verticalAlign=middle;resizable=0;points=[];autosize=1;" vertex="1" parent="1">
          <mxGeometry x="120" y="1480" width="120" height="20" as="geometry" />
        </mxCell>
        <mxCell id="QKqAWIQm0binz4gcXkLU-59" style="edgeStyle=orthogonalEdgeStyle;rounded=0;orthogonalLoop=1;jettySize=auto;html=1;exitX=0.5;exitY=1;exitDx=0;exitDy=0;entryX=1;entryY=0.5;entryDx=0;entryDy=0;" edge="1" parent="1" source="QKqAWIQm0binz4gcXkLU-56" target="QKqAWIQm0binz4gcXkLU-45">
          <mxGeometry relative="1" as="geometry" />
        </mxCell>
        <mxCell id="QKqAWIQm0binz4gcXkLU-56" value="ABSEN" style="shape=partialRectangle;whiteSpace=wrap;html=1;left=0;right=0;fillColor=none;" vertex="1" parent="1">
          <mxGeometry x="590" y="1310" width="90" height="30" as="geometry" />
        </mxCell>
        <mxCell id="QKqAWIQm0binz4gcXkLU-58" value="DATA MAHASISWA" style="text;html=1;align=center;verticalAlign=middle;resizable=0;points=[];autosize=1;" vertex="1" parent="1">
          <mxGeometry x="480" y="1240" width="120" height="20" as="geometry" />
        </mxCell>
        <mxCell id="QKqAWIQm0binz4gcXkLU-60" value="ABSEN" style="text;html=1;align=center;verticalAlign=middle;resizable=0;points=[];autosize=1;" vertex="1" parent="1">
          <mxGeometry x="525" y="1420" width="60" height="20" as="geometry" />
        </mxCell>
        <mxCell id="QKqAWIQm0binz4gcXkLU-78" style="edgeStyle=orthogonalEdgeStyle;rounded=0;orthogonalLoop=1;jettySize=auto;html=1;exitX=1;exitY=0.5;exitDx=0;exitDy=0;entryX=0;entryY=0.5;entryDx=0;entryDy=0;" edge="1" parent="1" source="QKqAWIQm0binz4gcXkLU-79" target="QKqAWIQm0binz4gcXkLU-83">
          <mxGeometry relative="1" as="geometry" />
        </mxCell>
        <mxCell id="QKqAWIQm0binz4gcXkLU-79" value="MAHASISWA" style="rounded=0;whiteSpace=wrap;html=1;" vertex="1" parent="1">
          <mxGeometry x="50" y="1750" width="120" height="60" as="geometry" />
        </mxCell>
        <mxCell id="QKqAWIQm0binz4gcXkLU-80" style="edgeStyle=orthogonalEdgeStyle;rounded=0;orthogonalLoop=1;jettySize=auto;html=1;exitX=1;exitY=0.5;exitDx=0;exitDy=0;entryX=0.5;entryY=0;entryDx=0;entryDy=0;" edge="1" parent="1" source="QKqAWIQm0binz4gcXkLU-81" target="QKqAWIQm0binz4gcXkLU-83">
          <mxGeometry relative="1" as="geometry" />
        </mxCell>
        <mxCell id="QKqAWIQm0binz4gcXkLU-81" value="DOSEN" style="rounded=0;whiteSpace=wrap;html=1;" vertex="1" parent="1">
          <mxGeometry x="50" y="1650" width="120" height="60" as="geometry" />
        </mxCell>
        <mxCell id="QKqAWIQm0binz4gcXkLU-82" style="edgeStyle=orthogonalEdgeStyle;rounded=0;orthogonalLoop=1;jettySize=auto;html=1;exitX=1;exitY=0.5;exitDx=0;exitDy=0;entryX=0.5;entryY=0;entryDx=0;entryDy=0;" edge="1" parent="1" source="QKqAWIQm0binz4gcXkLU-83" target="QKqAWIQm0binz4gcXkLU-92">
          <mxGeometry relative="1" as="geometry" />
        </mxCell>
        <mxCell id="QKqAWIQm0binz4gcXkLU-83" value="1.1&lt;br&gt;&lt;br&gt;INPUT NILAI" style="ellipse;whiteSpace=wrap;html=1;aspect=fixed;" vertex="1" parent="1">
          <mxGeometry x="380" y="1730" width="100" height="100" as="geometry" />
        </mxCell>
        <mxCell id="QKqAWIQm0binz4gcXkLU-84" style="edgeStyle=orthogonalEdgeStyle;rounded=0;orthogonalLoop=1;jettySize=auto;html=1;exitX=0;exitY=0.5;exitDx=0;exitDy=0;entryX=0.75;entryY=1;entryDx=0;entryDy=0;" edge="1" parent="1" source="QKqAWIQm0binz4gcXkLU-86" target="QKqAWIQm0binz4gcXkLU-79">
          <mxGeometry relative="1" as="geometry" />
        </mxCell>
        <mxCell id="QKqAWIQm0binz4gcXkLU-85" style="edgeStyle=orthogonalEdgeStyle;rounded=0;orthogonalLoop=1;jettySize=auto;html=1;exitX=0;exitY=1;exitDx=0;exitDy=0;entryX=0;entryY=0.5;entryDx=0;entryDy=0;" edge="1" parent="1" source="QKqAWIQm0binz4gcXkLU-86" target="QKqAWIQm0binz4gcXkLU-81">
          <mxGeometry relative="1" as="geometry" />
        </mxCell>
        <mxCell id="QKqAWIQm0binz4gcXkLU-86" value="1.1&lt;br&gt;&lt;br&gt;LIHAT NILAI" style="ellipse;whiteSpace=wrap;html=1;aspect=fixed;" vertex="1" parent="1">
          <mxGeometry x="380" y="1900" width="100" height="100" as="geometry" />
        </mxCell>
        <mxCell id="QKqAWIQm0binz4gcXkLU-87" value="NILAI" style="text;html=1;align=center;verticalAlign=middle;resizable=0;points=[];autosize=1;" vertex="1" parent="1">
          <mxGeometry x="255" y="1660" width="50" height="20" as="geometry" />
        </mxCell>
        <mxCell id="QKqAWIQm0binz4gcXkLU-88" value="DATA MAHASISWA" style="text;html=1;align=center;verticalAlign=middle;resizable=0;points=[];autosize=1;" vertex="1" parent="1">
          <mxGeometry x="215" y="1760" width="120" height="20" as="geometry" />
        </mxCell>
        <mxCell id="QKqAWIQm0binz4gcXkLU-89" value="NILAI" style="text;html=1;align=center;verticalAlign=middle;resizable=0;points=[];autosize=1;" vertex="1" parent="1">
          <mxGeometry x="250" y="1930" width="50" height="20" as="geometry" />
        </mxCell>
        <mxCell id="QKqAWIQm0binz4gcXkLU-90" value="LAPORAN NILAI" style="text;html=1;align=center;verticalAlign=middle;resizable=0;points=[];autosize=1;" vertex="1" parent="1">
          <mxGeometry x="125" y="1990" width="110" height="20" as="geometry" />
        </mxCell>
        <mxCell id="QKqAWIQm0binz4gcXkLU-91" style="edgeStyle=orthogonalEdgeStyle;rounded=0;orthogonalLoop=1;jettySize=auto;html=1;exitX=0.5;exitY=1;exitDx=0;exitDy=0;entryX=1;entryY=0.5;entryDx=0;entryDy=0;" edge="1" parent="1" source="QKqAWIQm0binz4gcXkLU-92" target="QKqAWIQm0binz4gcXkLU-86">
          <mxGeometry relative="1" as="geometry" />
        </mxCell>
        <mxCell id="QKqAWIQm0binz4gcXkLU-92" value="NILAI" style="shape=partialRectangle;whiteSpace=wrap;html=1;left=0;right=0;fillColor=none;" vertex="1" parent="1">
          <mxGeometry x="590" y="1820" width="90" height="30" as="geometry" />
        </mxCell>
        <mxCell id="QKqAWIQm0binz4gcXkLU-93" value="DATA MAHASISWA" style="text;html=1;align=center;verticalAlign=middle;resizable=0;points=[];autosize=1;" vertex="1" parent="1">
          <mxGeometry x="480" y="1750" width="120" height="20" as="geometry" />
        </mxCell>
        <mxCell id="QKqAWIQm0binz4gcXkLU-94" value="NILAI" style="text;html=1;align=center;verticalAlign=middle;resizable=0;points=[];autosize=1;" vertex="1" parent="1">
          <mxGeometry x="530" y="1930" width="50" height="20" as="geometry" />
        </mxCell>
        <mxCell id="QKqAWIQm0binz4gcXkLU-95" value="LEVEL CONTEXT" style="text;html=1;align=center;verticalAlign=middle;resizable=0;points=[];autosize=1;" vertex="1" parent="1">
          <mxGeometry x="60" y="100" width="110" height="20" as="geometry" />
        </mxCell>
        <mxCell id="QKqAWIQm0binz4gcXkLU-96" value="LEVEL 0" style="text;html=1;align=center;verticalAlign=middle;resizable=0;points=[];autosize=1;" vertex="1" parent="1">
          <mxGeometry x="90" y="510" width="60" height="20" as="geometry" />
        </mxCell>
        <mxCell id="QKqAWIQm0binz4gcXkLU-97" value="LEVEL 1" style="text;html=1;align=center;verticalAlign=middle;resizable=0;points=[];autosize=1;" vertex="1" parent="1">
          <mxGeometry x="60" y="1080" width="60" height="20" as="geometry" />
        </mxCell>
        <mxCell id="QKqAWIQm0binz4gcXkLU-98" value="LEVEL 1" style="text;html=1;align=center;verticalAlign=middle;resizable=0;points=[];autosize=1;" vertex="1" parent="1">
          <mxGeometry x="60" y="1610" width="60" height="20" as="geometry" />
        </mxCell>
      </root>
    </mxGraphModel>
  </diagram>
</mxfile>
